<?xml version="1.0" encoding="UTF-8" standalone="no"?>
<!-- Created with Inkscape (http://www.inkscape.org/) -->

<svg
   width="419.44073mm"
   height="95.017296mm"
   viewBox="0 0 419.44073 95.017296"
   version="1.1"
   id="svg5"
   inkscape:version="1.1 (c68e22c387, 2021-05-23)"
   sodipodi:docname="mygames.svg"
   xmlns:inkscape="http://www.inkscape.org/namespaces/inkscape"
   xmlns:sodipodi="http://sodipodi.sourceforge.net/DTD/sodipodi-0.dtd"
   xmlns="http://www.w3.org/2000/svg"
   xmlns:svg="http://www.w3.org/2000/svg">
  <sodipodi:namedview
     id="namedview7"
     pagecolor="#ffffff"
     bordercolor="#111111"
     borderopacity="1"
     inkscape:pageshadow="0"
     inkscape:pageopacity="0"
     inkscape:pagecheckerboard="1"
     inkscape:document-units="mm"
     showgrid="false"
     showguides="true"
     inkscape:guide-bbox="true"
     inkscape:zoom="0.23162177"
     inkscape:cx="908.80921"
     inkscape:cy="770.65294"
     inkscape:window-width="1366"
     inkscape:window-height="705"
     inkscape:window-x="-8"
     inkscape:window-y="-8"
     inkscape:window-maximized="1"
     inkscape:current-layer="layer1" />
  <defs
     id="defs2" />
  <g
     inkscape:label="Layer 1"
     inkscape:groupmode="layer"
     id="layer1"
     transform="translate(42.215455,-76.49614)">
    <g
       id="g2121">
      <path
         style="fill:#000000;fill-rule:evenodd;stroke-width:0.712508;stroke-linecap:round;stroke-linejoin:round;stroke-miterlimit:4.3"
         id="path910"
         d="m -32.186739,141.40616 c 2.321658,-2.10674 4.053042,-4.41923 5.56059,-6.7639 2.333863,-3.62984 3.687915,-6.18929 4.981035,-10.09037 0.736127,-2.22075 1.161933,-4.47357 1.742901,-6.71034 2.209898,-9.37727 3.642243,-18.821384 3.789212,-28.290731 0.150635,-0.942792 -0.101441,-1.886715 -0.04904,-2.829383 0.128381,-2.309403 6.9652754,-4.202629 -9.051951,2.844538 -0.253888,0.111704 0.37948,0.299566 0.562161,0.452357 0.454159,0.379861 0.89882,0.763659 1.34823,1.145488 0.576026,0.541177 1.168592,1.07632 1.728071,1.623531 2.497178,2.442422 1.13127,1.252144 3.706473,3.737673 3.305413,3.190308 1.327855,1.115505 4.705065,4.449557 0.809566,0.79923 1.58192,1.61143 2.372881,2.41714 2.0348801,2.07093 3.8095922,4.22154 5.4891511,6.39875 0.3876662,0.50253 0.6600984,1.041 1.1521563,1.51051 0.3116636,0.29738 0.6691506,0.8768 1.2262214,0.75887 3.80386858,-0.80524 7.1748955,-2.19783 10.7623438,-3.29675 0.3933909,-0.56528 0.8200347,-1.12286 1.1801691,-1.69584 2.0073343,-3.19369 3.4746123,-6.50012 5.0522143,-9.773061 2.763107,-5.73243 1.280919,-2.713428 4.084658,-8.335918 1.985067,-3.960045 1.638336,-3.3208 3.601513,-7.048583 0.466356,-0.885537 0.859823,-1.786117 1.412293,-2.654165 0.377762,-0.593546 0.797528,-1.185398 1.372203,-1.720872 0.318107,-0.296409 1.780548,-0.916911 1.268249,-0.739467 -2.903639,1.00573 -5.654186,2.158557 -8.481278,3.237835 0.273353,0.37765 0.63578,0.736881 0.820066,1.132947 1.978291,4.251701 2.216881,8.964775 2.612255,13.329022 0.59281,6.543572 0.507386,6.928102 0.713858,13.498972 0.299317,9.3224 0.30943,18.65097 0.895866,27.96947 0.144194,1.53079 0.154755,3.08079 0.755526,4.58178 0.396608,0.9909 1.07011,1.90166 1.810483,2.81437 1.05957,1.09673 2.016311,2.2765 3.617767,3.13672 0,0 9.229938,-3.42537 9.229938,-3.42537 v 0 c -1.661126,-0.67777 -2.552204,-1.83161 -3.595498,-2.81633 -0.5588,-0.67831 -0.822447,-0.95422 -1.262413,-1.66892 -1.050519,-1.7065 -1.385268,-3.52314 -1.799423,-5.31104 -1.850386,-9.08375 -2.405871,-18.24175 -2.704665,-27.38329 -0.203513,-6.525379 -0.334264,-13.049979 -0.572344,-19.574852 -0.07622,-2.08917 0.02548,-5.79742 -0.638472,-8.115259 -0.167907,-0.586151 -0.589632,-1.136741 -0.884449,-1.705109 -3.42416,0.923233 -6.970032,1.702668 -10.272483,2.769699 -0.455799,0.147272 -0.577121,0.515412 -0.774259,0.79954 -0.376013,0.541937 -0.662877,1.104776 -0.937508,1.667586 -1.539553,3.155028 -2.705614,6.375617 -4.3473005,9.514596 -1.979308,4.1119 -3.967234,8.22904 -6.2723316,12.282619 -0.9321757,1.63925 -2.5445828,4.39114 -4.01539766,6.00264 -0.49371457,0.54094 -1.19496254,1.00604 -1.79244344,1.50906 2.71958758,-0.77503 5.6575992,-1.32544 8.1587603,-2.3251 0.4056087,-0.16211 -0.9713606,-0.1997 -1.2825655,-0.42316 -0.5908778,-0.42429 -0.8900367,-0.96508 -1.3265509,-1.45032 -1.9074172,-2.12032 -3.76345956,-4.25768 -5.8274539,-6.32749 -3.9851689,-4.142083 -8.2498438,-8.192719 -11.9278818,-12.435905 -0.347378,-0.415664 -0.696217,-0.830902 -1.042134,-1.246993 -0.191556,-0.230413 -0.164187,-0.783449 -0.570274,-0.69251 -11.818136,2.646595 -10.134423,1.124608 -9.347545,4.457913 0.127871,0.541672 0.214504,1.086468 0.321756,1.629702 0.292698,2.253753 0.455127,3.163168 0.543645,5.563488 0.27219,7.380655 -0.728512,14.764485 -2.504563,22.066815 -0.732076,2.26346 -1.291376,4.54885 -2.196228,6.79035 -1.487986,3.68607 -3.358467,6.833 -5.952817,10.26189 -1.656158,2.1889 -3.201436,3.89691 -5.51773,5.80417 -0.496454,0.40879 -1.106285,0.765 -1.659428,1.1475 0,0 10.028716,-2.45607 10.028716,-2.45607 z" />
      <g
         id="g1405"
         transform="matrix(0.72958041,0,0,0.72974866,6.6501291,25.595266)">
        <path
           style="fill:#000000;fill-rule:evenodd;stroke-width:1;stroke-linecap:round;stroke-linejoin:round;stroke-miterlimit:4.3"
           id="path912"
           d="m 38.191178,118.34803 c 0.185622,2.82835 0.0291,1.33912 0.71758,5.28068 0.2667,1.52686 0.44711,3.07242 0.81734,4.57754 1.44947,5.89266 3.90048,11.41751 6.33873,16.9452 2.10707,4.20814 2.16179,4.61934 4.56677,8.36838 1.31467,2.04941 2.84639,4.4128 4.99971,5.71119 0.38975,0.23501 0.84322,0.34283 1.26484,0.51424 0,0 9.55846,-6.57775 9.55846,-6.57775 v 0 c -0.39096,-0.0411 -0.80191,0.007 -1.17287,-0.12337 -1.24747,-0.43748 -2.4182,-1.51413 -3.28029,-2.42883 -2.90203,-3.07912 -5.05964,-6.77375 -6.99594,-10.50458 -0.81655,-1.79304 -1.70869,-3.55355 -2.44966,-5.37913 -2.79196,-6.87864 -4.55466,-14.2382 -3.93165,-21.69947 0,0 -10.43302,5.3159 -10.43302,5.3159 z" />
        <path
           style="fill:#000000;fill-rule:evenodd;stroke-width:1;stroke-linecap:round;stroke-linejoin:round;stroke-miterlimit:4.3"
           id="path916"
           d="m 80.014118,108.93328 c -2.65129,6.89146 -5.93589,13.51914 -9.07825,20.1927 -3.56133,7.56332 -7.10306,15.13584 -10.66239,22.70009 -4.43702,9.52093 -8.83765,19.05912 -13.14273,28.64055 -2.19292,4.88058 -4.30936,9.76511 -6.73432,14.53442 -0.54552,0.74098 -0.93467,1.62796 -1.636554,2.22294 -0.587955,0.49839 -2.72238,1.41603 -2.107703,0.95099 2.422937,-1.83307 5.580507,-2.7823 7.566947,-5.08118 0.62003,-0.71756 -1.90005,-0.16605 -2.8139,-0.41946 -2.811534,-0.77961 -4.359151,-1.96449 -6.919399,-3.4765 -6.524504,-4.42302 -11.791247,-10.30272 -16.808932,-16.30776 0,0 -9.2671095,5.59449 -9.2671095,5.59449 v 0 c 5.3440505,5.83575 10.6890545,11.76919 17.0813455,16.49121 3.086412,2.1695 3.47255,2.75509 6.770396,4.03597 0.943105,0.36631 1.94522,1.18992 2.906533,0.87448 4.229776,-1.38794 8.085186,-3.7351 12.039946,-5.77895 0.67261,-0.34762 1.31333,-0.80242 1.80641,-1.37697 0.56816,-0.66203 0.87769,-1.50798 1.31654,-2.26197 1.90141,-4.62054 3.58289,-9.31964 5.42494,-13.96415 3.76356,-9.48938 7.81102,-18.86593 12.09995,-28.12949 1.81265,-3.83225 3.56415,-7.69402 5.43794,-11.49675 5.47737,-11.11591 11.71809,-21.81484 17.35505,-32.84463 0,0 -10.63471,4.89997 -10.63471,4.89997 z" />
      </g>
      <path
         style="fill:#000000;fill-rule:evenodd;stroke-width:0.492915;stroke-linecap:round;stroke-linejoin:round;stroke-miterlimit:4.3"
         id="path1051"
         d="m 160.54386,89.514183 c -0.18694,-0.938427 -0.7754,-1.758666 -1.48276,-2.572472 -0.39701,-0.45675 -0.79676,-0.915425 -1.27383,-1.336538 -1.27927,-1.12924 -2.65617,-1.976635 -4.15219,-2.975574 -3.46708,-2.000899 -7.48166,-3.570037 -11.77139,-4.643182 -2.47106,-0.618175 -3.22449,-0.688446 -5.74453,-1.09701 -3.86564,-0.46843 -7.77279,-0.232628 -11.50264,0.581002 -2.38583,0.520446 -3.97051,1.070713 -6.23199,1.777091 -6.0591,2.269377 -12.28854,4.455353 -17.22972,7.778365 -2.490891,1.67517 -2.730721,2.105355 -4.767829,4.083674 -2.934562,3.313541 -5.458227,6.815529 -7.160958,10.502221 -0.941034,2.03751 -1.111504,2.85143 -1.737511,4.91156 -0.637327,3.0421 -0.762511,6.15059 0.1164,9.17962 0.675157,2.32681 1.107534,2.83728 2.344095,5.14913 1.264704,1.85776 2.790195,4.19359 4.266976,5.98537 1.719741,2.08657 3.553332,3.92091 5.71225,5.81599 1.012187,0.88849 2.045717,1.76905 3.170277,2.59493 1.13877,0.8363 2.40674,1.58969 3.61011,2.38453 4.49489,2.69073 9.42076,5.12842 15.00617,6.71575 2.80592,0.79742 5.15159,1.20486 8.05036,1.77872 1.22343,0.15273 2.43202,0.37453 3.67029,0.4582 3.71343,0.2509 8.65869,-0.21716 11.97048,-1.44336 2.61272,-0.96737 5.13013,-2.04554 7.6952,-3.06831 0.60342,-0.53923 1.29603,-1.03861 1.81024,-1.61769 1.278,-1.43919 1.98542,-2.94565 2.59468,-4.56029 0.54492,-1.44412 1.16646,-3.7889 1.36967,-5.28602 0.10995,-0.81004 0.0958,-1.62547 0.14374,-2.4382 -0.0609,-0.72721 -0.0399,-1.45958 -0.18281,-2.18163 -0.35306,-1.78388 -1.23271,-3.5839 -2.65656,-5.11522 -0.90768,-0.97619 -1.33433,-1.19105 -2.48505,-1.98365 -2.81403,-1.62496 -5.78391,-1.76895 -9.33556,-1.93129 -3.24463,-0.12525 -6.46162,0.13089 -9.63592,0.55437 -0.78738,0.11076 -1.56076,0.25912 -2.33809,0.39656 -0.17514,0.0309 -0.35002,0.0626 -0.52616,0.091 -0.0965,0.0155 -0.21246,2.2e-4 -0.29139,0.0403 -1.8569,0.94475 -3.66134,1.93474 -5.492,2.9021 0.26657,-0.0577 0.52857,-0.12579 0.79972,-0.17295 2.06638,-0.35933 4.18741,-0.57754 6.28018,-0.85184 2.50411,-0.32823 2.8109,-0.3868 5.30126,-0.76219 5.01879,-0.82834 10.07229,-1.54876 15.15122,-2.1905 2.28117,-0.24199 4.51924,-0.60497 6.75323,-0.98933 0.67352,-0.10767 0.34934,-0.0593 0.97205,-0.14666 0,0 5.64451,-2.85348 5.64451,-2.85348 v 0 c -0.67362,0.0803 -0.32387,0.0329 -1.04832,0.14515 -2.34023,0.42621 -4.65387,0.91212 -7.05366,1.17891 -5.11262,0.70533 -10.22569,1.41754 -15.29638,2.24862 -3.91642,0.6012 -7.86326,1.13098 -11.85722,1.4417 -1.92537,0.99078 -3.85073,1.98155 -5.77608,2.97233 0.10474,-0.032 0.20479,-0.0721 0.31422,-0.0961 0.98052,-0.2151 2.00765,-0.34618 2.98439,-0.57211 3.17909,-0.48892 6.39725,-0.8754 9.67875,-0.73212 3.26297,0.13968 6.37515,0.27669 9.05743,1.67441 1.15152,0.7125 1.60485,0.91872 2.52687,1.81864 2.10961,2.05908 2.87358,4.52025 2.99341,6.97902 -0.033,0.79227 -0.002,1.58688 -0.099,2.3768 -0.37727,3.07289 -1.68983,7.1298 -4.32885,9.70803 -0.57234,0.55915 -1.33691,1.01854 -2.00536,1.52781 1.12966,-0.39375 2.33339,-0.7044 3.38897,-1.18126 0.74888,-0.33831 -1.61714,0.54437 -2.46041,0.76178 -3.00663,0.77517 -6.30731,1.14857 -9.53207,0.99964 -1.24927,-0.0577 -2.47479,-0.25706 -3.71218,-0.38559 -3.28411,-0.59693 -4.85364,-0.80731 -8.0366,-1.69908 -5.55909,-1.5575 -10.59865,-3.86377 -15.08915,-6.5287 -3.21529,-2.1237 -4.01388,-2.50681 -6.7735,-4.9038 -4.10984,-3.56981 -7.292315,-7.57997 -9.66963,-11.78699 -0.42599,-0.91779 -0.909707,-1.82448 -1.277974,-2.75338 -1.481011,-3.7355 -1.712641,-7.63551 -0.860514,-11.44955 0.606984,-2.08257 0.725214,-2.76333 1.662611,-4.826123 1.667748,-3.669939 4.144066,-7.168133 7.230877,-10.396995 2.09825,-1.9208 2.4267,-2.395645 4.91482,-4.025175 0.87852,-0.575358 1.81354,-1.112167 2.76598,-1.632299 0.97205,-0.530837 2.33337,-0.808769 3.00335,-1.518338 0.44888,-0.475421 -2.92179,1.092449 -2.26765,0.739148 0.93892,-0.5071 2.09154,-0.805893 3.1373,-1.208845 2.24215,-0.723514 3.73046,-1.259599 6.09077,-1.799681 3.64292,-0.833571 7.47521,-1.127756 11.28749,-0.73331 2.45907,0.355463 3.3667,0.435858 5.78078,0.99769 4.26375,0.992307 8.2299,2.495513 11.58856,4.519069 0.71326,0.490483 1.4655,0.956907 2.13976,1.471456 1.94238,1.482278 3.83451,3.316691 3.83265,5.362903 0,0 6.33137,-2.156784 6.33137,-2.156784 z" />
      <path
         style="fill:#000000;fill-rule:evenodd;stroke-width:0.493659;stroke-linecap:round;stroke-linejoin:round;stroke-miterlimit:4.3"
         id="path1172"
         d="m 188.36234,104.48176 c -2.55044,-0.53692 -5.17575,-0.60006 -7.72149,0.0499 -0.8311,0.21221 -1.64504,0.55056 -2.46756,0.82585 -2.54575,1.28597 -2.34868,0.95763 -4.66231,3.04817 -3.49529,3.15825 -5.03215,3.63753 -6.9642,7.80152 -1.21719,2.62336 -1.18068,3.27034 -1.79111,6.25785 -0.0712,1.10318 -0.20735,2.20143 -0.21368,3.30955 -0.0184,3.24762 0.55474,6.45511 1.81842,9.14443 1.09115,2.32213 1.67813,2.71721 3.17227,4.41324 0.66527,0.50013 1.2938,1.12448 1.9958,1.50041 0.76793,0.41123 1.57837,0.63834 2.38342,0.84469 1.7301,0.44345 3.09134,0.52786 4.83427,0.12223 1.9708,-0.45864 2.75754,-1.07939 4.57959,-2.13586 2.76316,-2.37518 5.2954,-3.8573 7.42984,-7.15704 1.65751,-2.56243 2.80146,-5.68373 3.65603,-8.95721 0.24976,-0.95676 0.4466,-1.94165 0.66991,-2.91247 0.47173,-2.48992 0.6883,-5.04187 0.6342,-7.62365 -0.0261,-1.24693 -0.0858,-2.19129 -0.34163,-3.36655 -0.0885,-0.40667 -0.22772,-0.7856 -0.34158,-1.17839 -0.65435,-1.51331 -1.22243,-2.32075 -2.4479,-2.50128 -1.93837,0.0498 -3.26093,2.25285 -4.96512,3.87826 -0.0912,0.087 -0.10999,0.28674 -0.12037,0.44597 -0.0313,0.48021 0.109,1.05215 0.19189,1.49538 0.13703,0.36114 0.24625,0.74843 0.4111,1.08344 0.27698,0.56289 0.60257,1.0704 0.90897,1.59924 1.58788,2.74066 0.70212,1.18783 2.55996,4.16134 1.00906,1.61502 1.9057,3.12651 2.8936,4.77289 2.18645,3.76174 4.35124,7.58573 6.96966,10.72549 0.3516,0.42162 0.72518,0.80193 1.08776,1.20289 1.97527,1.97002 4.18728,2.20068 6.49391,2.36901 1.24856,0.01 0.64742,0.0318 1.80357,-0.0555 0,0 3.722,-4.0465 3.722,-4.0465 v 0 c -1.16996,0.18242 -0.56229,0.11906 -1.82364,0.176 -2.218,-0.0968 -4.4576,-0.268 -6.41715,-1.98415 -0.37802,-0.36682 -0.76748,-0.70922 -1.13405,-1.10045 -2.73273,-2.9168 -4.91874,-6.72867 -7.07729,-10.50645 -1.39818,-2.38949 -2.85421,-4.70622 -4.20557,-7.15416 -0.56977,-1.03212 -1.28776,-2.35333 -1.74524,-3.53752 -0.12049,-0.31179 -0.1885,-0.66151 -0.28275,-0.99227 -0.0384,-0.41685 -0.12515,-0.67702 0.0248,-1.04915 0.042,-0.1043 0.25116,-0.30945 0.17897,-0.25101 -1.30561,1.05692 -2.58308,2.18782 -3.88599,3.25193 -0.0865,0.0707 0.14448,-0.20662 0.23386,-0.26916 0.0991,-0.0694 0.21294,-0.0787 0.31941,-0.11802 0.18952,-0.0118 0.53918,-0.0511 0.72958,0.006 0.66714,0.19934 1.16484,0.97793 1.54354,1.74987 0.11562,0.34673 0.2546,0.67868 0.34706,1.0402 0.83512,3.26584 0.38643,7.18194 -0.14081,10.45568 -0.20848,0.94022 -0.38299,1.89826 -0.62545,2.82067 -0.58105,2.21041 -1.18269,4.01558 -2.13447,5.9413 -0.47696,0.96502 -0.99157,1.89751 -1.56741,2.73762 -0.5672,0.82753 -1.57146,1.14201 -1.84771,2.24495 -0.20673,0.82542 1.06039,-0.8122 1.59058,-1.2183 -1.78987,1.11816 -2.57747,1.77776 -4.5189,2.30417 -1.71209,0.46422 -3.03874,0.42538 -4.75104,0.0276 -0.77092,-0.1791 -1.54601,-0.38836 -2.28237,-0.76912 -0.68134,-0.3523 -1.29434,-0.94332 -1.94151,-1.41497 -1.46996,-1.62241 -2.00269,-1.94071 -3.07123,-4.19363 -1.22371,-2.58008 -1.76387,-5.6692 -1.723,-8.79434 0.014,-1.06879 0.15874,-2.12517 0.23812,-3.18775 0.63538,-2.86971 0.6129,-3.52392 1.84567,-6.01776 0.45103,-0.91244 1.61524,-1.40927 1.52783,-2.53031 -0.0675,-0.86561 -2.03552,1.62849 -1.64969,0.96771 0.83359,-1.42759 3.46298,-2.58058 4.57163,-3.16956 0.79586,-0.27521 1.58231,-0.61813 2.3876,-0.82564 2.366,-0.60972 4.80901,-0.49808 7.15599,0.2147 0,0 3.95134,-3.97186 3.95134,-3.97186 z" />
      <path
         style="fill:#000000;fill-rule:evenodd;stroke-width:0.795681;stroke-linecap:round;stroke-linejoin:round;stroke-miterlimit:4.3"
         id="path1297"
         d="m 213.37094,107.73953 c 0.29914,-0.32358 0.58123,-0.67112 0.8974,-0.97073 0.41171,-0.39014 0.8383,-0.75992 1.28269,-1.09515 0.49141,-0.37069 2.01317,-1.38782 1.52054,-1.01944 -1.80264,1.34799 -3.7265,2.474 -5.45178,3.95917 -0.40156,0.34568 0.93744,-0.402 1.4265,-0.49411 0.39822,-0.075 0.80629,-0.002 1.20943,-0.003 0.33559,0.1814 0.73817,0.24331 1.00677,0.54421 0.74249,0.83178 1.32891,2.94108 1.5544,3.92924 0.8267,3.62268 1.02088,7.38246 1.27783,11.10403 0.38305,5.79891 0.0737,11.64329 -0.88228,17.34263 -0.24942,1.39951 -0.5211,2.8106 -0.92278,4.16222 -0.0749,0.25203 -0.10544,0.54932 -0.2647,0.73743 -0.0753,0.0889 -0.4051,0.0122 -0.31452,-0.0533 2.61756,-1.89137 5.30329,-3.64495 7.95495,-5.46742 1.08984,-8.61866 3.2126,-16.96887 5.53355,-25.21037 1.16456,-3.63031 2.18418,-7.52398 4.16504,-10.68708 0.43751,-0.69861 2.184,-2.24315 1.51546,-1.8908 -10.53409,5.55158 -6.19873,4.14375 -3.85246,3.48722 0.53587,0.13172 1.09881,0.15517 1.60764,0.39516 2.6641,1.25654 5.0667,5.01292 6.55538,7.79401 0.46357,0.86602 0.85955,1.781 1.28933,2.67151 1.4317,3.24852 2.5208,6.69006 3.15657,10.28319 0.31592,1.7854 0.37261,2.62276 0.55881,4.40751 0.31422,3.05376 0.0727,6.11205 -0.55587,9.08191 -0.47141,1.57928 -0.59003,3.29418 -1.16504,4.82591 -0.2876,0.37379 -0.11876,0.30118 -0.47139,0.31054 2.53443,-1.59137 5.10962,-3.09354 7.60328,-4.7741 0.0797,-0.0537 -0.0259,-0.21641 -0.0373,-0.32485 -0.032,-0.30334 -0.0691,-0.60607 -0.0929,-0.91046 -0.037,-0.47087 -0.0598,-0.94317 -0.0897,-1.41475 -0.0707,-4.87097 0.92229,-9.71165 2.6056,-14.13862 0.43427,-1.14211 0.96092,-2.23091 1.44139,-3.34637 2.17104,-4.13621 4.67695,-8.04283 7.79661,-11.22812 1.3569,-1.38543 1.85152,-1.69666 3.27777,-2.80069 -10.79001,7.65431 -6.37563,3.45821 -3.41765,3.64071 1.08306,0.0669 2.06694,0.54689 3.04599,1.04946 1.80164,1.14292 2.60594,3.13767 3.20756,5.35485 0.65003,3.11728 0.69802,6.34648 0.76312,9.54011 0.0356,3.70215 0.13528,7.40798 -0.0362,11.10661 -0.0976,2.51644 -0.47173,5.0007 -0.73597,7.49649 -0.0738,0.68599 -0.11364,1.37568 -0.14921,2.06559 0,0 7.657,-4.5915 7.657,-4.5915 v 0 c 0.028,-0.66131 0.0587,-1.32249 0.11042,-1.98191 0.19235,-2.48278 0.48132,-4.95805 0.52836,-7.45366 0.0579,-3.72222 0.024,-7.44667 0.0278,-11.16931 -0.0659,-3.29046 -0.18289,-6.60477 -0.82007,-9.82087 -0.69185,-2.6913 -1.47831,-4.56852 -3.54194,-6.10597 -1.42877,-0.78018 -2.98252,-1.55229 -4.59403,-1.46346 -3.37086,0.18581 -8.86674,5.36147 -9.68702,5.9141 -1.32149,1.14209 -1.74974,1.4466 -3.01031,2.84652 -2.99244,3.32319 -5.38224,7.30376 -7.53049,11.43169 -0.48692,1.15291 -1.01995,2.27973 -1.46073,3.45879 -1.7358,4.64299 -2.70606,9.69214 -2.91375,14.76153 0.003,0.47997 -0.009,2.01519 0.0572,2.60229 0.0289,0.25658 -0.0443,0.84472 0.15863,0.75327 8.14268,-3.66909 6.93438,-1.22067 8.07088,-5.11997 0.40888,-1.59624 0.60868,-3.26009 0.97909,-4.86987 0.51807,-3.06285 0.67928,-6.18949 0.22886,-9.28585 -0.66994,-5.21006 -1.87411,-10.26644 -4.06664,-14.88388 -1.87431,-3.86391 -4.55156,-9.09689 -7.96834,-11.24502 -0.55945,-0.35172 -1.18786,-0.51795 -1.78177,-0.77693 -0.56637,0.0624 -1.192,-0.12028 -1.69908,0.18712 -3.98106,2.41328 -7.57877,3.77282 -9.8214,7.99583 -1.72709,3.25221 -2.62498,7.04116 -3.69432,10.6289 -2.30406,8.52977 -4.41582,17.12758 -6.28408,25.80842 2.53347,-0.93764 5.09862,-1.76105 7.60038,-2.81294 0.10263,-0.0431 -0.005,-0.26144 0.0153,-0.38914 0.0392,-0.25309 0.10886,-0.49811 0.16067,-0.74795 0.28407,-1.3698 0.54382,-2.74787 0.70754,-4.1468 0.6803,-5.7318 0.80464,-11.54378 0.38743,-17.31433 -0.25122,-3.62385 -0.2485,-4.13917 -0.65054,-7.73557 -0.27146,-2.42847 -0.62222,-6.47104 -2.09609,-8.46557 -0.31555,-0.42702 -0.81453,-0.59306 -1.22179,-0.8896 -0.47147,-0.0663 -0.94048,-0.23184 -1.41441,-0.19888 -0.53105,0.0369 -1.0829,0.12309 -1.55925,0.40569 -2.94214,1.74546 -5.77768,3.73637 -8.64608,5.6487 -1.42861,0.95243 -2.74196,2.12331 -3.89746,3.50645 0,0 7.85627,-3.94132 7.85627,-3.94132 z" />
      <path
         style="fill:#000000;fill-rule:evenodd;stroke-width:0.748906;stroke-linecap:round;stroke-linejoin:round;stroke-miterlimit:4.3"
         id="path1321"
         d="m 279.52529,118.4425 c 2.67927,2.3468 5.74282,4.3817 9.2004,5.44469 1.08245,0.33279 2.20449,0.52594 3.30674,0.7889 5.20865,0.4453 10.42916,-0.0334 15.49685,-1.29466 1.92672,-0.47952 3.84903,-1.01905 5.68477,-1.76688 4.53935,-1.84921 12.36342,-7.31807 15.31316,-9.21021 2.03613,-2.57503 5.12955,-5.72206 4.1402,-9.3952 -0.52061,-1.93293 -2.29716,-3.419938 -4.04637,-4.220596 -1.05038,-0.480806 -2.23123,-0.617193 -3.34686,-0.925785 -1.28408,-0.0067 -2.57595,-0.157958 -3.85222,-0.0192 -2.88266,0.313344 -5.87466,1.308987 -8.35501,2.774351 -6.14268,3.62906 -10.68371,6.05705 -15.06095,11.10708 -1.3627,1.57215 -2.46867,3.34209 -3.703,5.01312 -1.04683,1.74169 -2.19826,3.42683 -3.14052,5.22505 -2.71818,5.18746 -5.05156,11.61092 -4.10371,17.54199 0.14862,0.92998 0.51921,1.81247 0.77882,2.71871 0.43766,0.68171 0.67924,1.53269 1.31299,2.04515 1.84291,1.49019 4.54554,1.60018 6.75189,1.48066 1.67745,-0.0909 3.3406,-0.38712 4.98713,-0.71447 4.87987,-0.97016 6.60136,-1.74117 11.36573,-3.36607 9.68243,-3.47424 18.44338,-8.77917 27.26996,-13.90368 0,0 -7.62684,2.9065 -7.62684,2.9065 v 0 c 1.44721,-0.77183 2.80017,-1.74562 4.34162,-2.31548 1.25119,-0.46258 -2.29407,1.34874 -3.46058,1.98977 -3.04902,1.67552 -6.08253,3.22254 -9.27072,4.63866 -1.81079,0.8043 -3.66097,1.52039 -5.49144,2.28058 -1.89296,0.65139 -3.759,1.38356 -5.67889,1.95415 -2.82459,0.83947 -6.94757,1.78753 -9.97056,1.97219 -1.72549,0.1054 -4.43041,0.0639 -5.99182,-1.07768 -0.59658,-0.43618 -0.86624,-1.18689 -1.29938,-1.78033 -0.28578,-0.82546 -0.6806,-1.62205 -0.85737,-2.47639 -1.17912,-5.69862 0.98164,-11.79711 3.60864,-16.79615 0.93043,-1.77054 2.07884,-3.42241 3.11827,-5.1336 1.2909,-1.65364 2.46104,-3.40511 3.87269,-4.96093 1.30428,-1.43751 3.24895,-2.33831 4.25113,-3.99265 0.35622,-0.58801 -2.60019,0.80089 -2.05743,0.37146 1.77655,-1.40562 5.70509,-2.58505 7.96032,-2.89724 1.19964,-0.16607 2.42233,-0.0584 3.6335,-0.0876 1.03586,0.24949 2.12809,0.33431 3.10762,0.74847 1.4755,0.62385 3.14245,1.94642 3.59331,3.57291 0.92103,3.32255 -2.01169,6.22115 -3.86979,8.4991 0.84259,-0.23749 3.19545,-1.26971 2.52777,-0.71247 -1.43917,1.20105 -3.21056,1.98094 -4.94068,2.72617 -4.85436,2.09096 -10.84015,3.12436 -16.13048,3.1926 -1.40069,0.018 -2.79748,-0.14918 -4.19622,-0.22377 -1.04363,-0.25675 -2.10626,-0.44816 -3.13086,-0.77026 -3.23371,-1.01656 -6.18128,-2.90646 -8.41503,-5.40816 0,0 -7.62678,4.45717 -7.62678,4.45717 z" />
      <path
         style="fill:#000000;fill-rule:evenodd;stroke-width:1.05809;stroke-linecap:round;stroke-linejoin:round;stroke-miterlimit:4.3"
         id="path2010"
         d="m 369.44673,102.786 c -5.32429,-2.24836 -10.92286,-3.722644 -16.54017,-4.846388 -6.28585,-0.74116 -7.30861,0.952257 -13.99254,6.120488 -0.34169,0.26418 -0.30181,0.87662 -0.2601,1.32611 0.0592,0.63743 0.36851,1.21869 0.55274,1.82804 0.33617,0.64365 0.57643,1.35689 1.00848,1.93097 2.35259,3.12584 6.03301,5.49116 9.13512,7.6013 2.75901,1.87675 5.5518,3.69587 8.32004,5.55696 2.77445,1.95952 5.79102,3.62867 8.31138,5.98499 0.74036,0.69217 2.01204,2.08648 2.39958,3.16061 0.18654,0.51696 0.15209,1.09655 0.22811,1.64481 -0.12958,0.61335 -0.16972,1.25665 -0.38873,1.84003 -1.06373,2.83382 -3.61866,5.67872 -5.96609,7.34258 -0.58313,0.41333 -1.22521,0.72197 -1.83781,1.08297 2.07187,-1.42847 4.37001,-2.53616 6.2156,-4.2854 0.55547,-0.52644 -1.44519,0.37264 -2.18179,0.46224 -3.34309,0.40667 -6.39735,-0.47813 -9.52508,-1.6161 -4.18136,-1.80855 -6.04825,-4.8564 -8.25145,-8.81336 0,0 -8.44875,5.26478 -8.44875,5.26478 v 0 c 2.49611,4.22458 4.25531,7.21412 8.74945,9.32004 3.19335,1.20279 6.33146,2.2521 9.76839,2.0592 0.76211,-0.0428 1.57297,0.007 2.26905,-0.32743 3.57413,-1.72291 6.95907,-3.86555 10.43856,-5.79832 0.58559,-0.40504 1.19994,-0.76582 1.75674,-1.21512 2.36275,-1.90667 4.88241,-4.96207 5.75277,-8.05021 0.19945,-0.70765 0.1767,-1.46633 0.26504,-2.19948 -0.14471,-0.66833 -0.17213,-1.37904 -0.43417,-2.00495 -1.62231,-3.87511 -8.40421,-6.95762 -11.51695,-9.11266 -3.29751,-2.15312 -5.02734,-3.23282 -8.26241,-5.55142 -2.93552,-2.10388 -6.26009,-4.3751 -8.36343,-7.51983 -0.35714,-0.53397 -0.53811,-1.18077 -0.80715,-1.77115 -0.0663,-0.44037 -0.25147,-0.87864 -0.19894,-1.32115 0.039,-0.32815 0.73776,-1.002007 0.4582,-0.86218 -2.66013,1.33064 -5.17716,2.96883 -7.73949,4.50438 -0.34473,0.2066 0.70063,-0.40916 1.08294,-0.51523 1.2114,-0.3361 2.40071,-0.20098 3.63514,-0.17515 5.46858,0.84306 11.03293,2.10175 15.98266,4.81549 0,0 8.38506,-5.86046 8.38506,-5.86046 z" />
    </g>
  </g>
</svg>
